<svg xmlns="http://www.w3.org/2000/svg" width="1440" height="320" viewBox="0 0 1440 320" preserveAspectRatio="none">
  <defs>
    <linearGradient id="wave-gradient" x1="0%" y1="0%" x2="100%" y2="0%">
      <stop offset="0%" style="stop-color:#004d66;stop-opacity:0.3"/>
      <stop offset="50%" style="stop-color:#006080;stop-opacity:0.2"/>
      <stop offset="100%" style="stop-color:#0ea5e9;stop-opacity:0.3"/>
    </linearGradient>
  </defs>
  <path fill="url(#wave-gradient)" d="M0,192L48,176C96,160,192,128,288,133.3C384,139,480,181,576,186.7C672,192,768,160,864,154.7C960,149,1056,171,1152,165.3C1248,160,1344,128,1392,112L1440,96L1440,320L1392,320C1344,320,1248,320,1152,320C1056,320,960,320,864,320C768,320,672,320,576,320C480,320,384,320,288,320C192,320,96,320,48,320L0,320Z"></path>
  <path fill="url(#wave-gradient)" opacity="0.5" d="M0,224L48,224C96,224,192,224,288,202.7C384,181,480,139,576,138.7C672,139,768,181,864,181.3C960,181,1056,139,1152,133.3C1248,128,1344,160,1392,176L1440,192L1440,320L1392,320C1344,320,1248,320,1152,320C1056,320,960,320,864,320C768,320,672,320,576,320C480,320,384,320,288,320C192,320,96,320,48,320L0,320Z"></path>
</svg>